<svg fill="none" height="15" viewBox="0 0 33 19" width="26.05" xmlns="http://www.w3.org/2000/svg">
	<path clip-rule="evenodd" d="M19.1336 15.7956C23.4467 15.7956 26.6647 12.3431 26.6647 7.89778C26.6647 3.45242 23.4467 -6.04701e-05 19.1336 -6.04701e-05H12.9209V10.2221H11.2323V6.47623H8.12595V10.2221H4.05868L9.24333 0H5.93588L0.728882 10.2221V13.1104H8.12595V15.7957H11.2323V13.1104H12.9209V15.7956H19.1336ZM19.1336 2.97855C21.8376 2.97855 23.7148 4.98686 23.7148 7.89778C23.7148 10.8087 21.8376 12.817 19.1336 12.817H16.0049V2.97855H19.1336ZM30.5662 9.00397C30.2748 12.0178 28.1806 14.885 23.2129 15.8633L23.2227 15.7717C28.4353 14.0769 28.6048 9.78389 28.5913 8.42057C28.5517 4.45237 26.1996 1.12306 22.6771 0.18801L22.6817 0.14288C22.9275 0.165445 23.6906 0.280622 24.4248 0.470076C28.6779 1.56825 30.9401 5.14155 30.5662 9.00397ZM12.907 17.0931C16.5715 18.9524 24.0044 20.0881 28.8501 17.236L28.8497 17.2355C31.611 15.6103 33.9175 11.8058 32.0566 7.29317C31.7656 6.58754 31.361 5.92045 31.2255 5.71219L31.1873 5.73664C33.288 10.6371 30.1598 14.6509 27.269 16.1618C24.1809 17.7761 18.2294 18.8644 12.9205 16.9126L12.907 17.0931Z" fill="#2D2F30" fill-rule="evenodd"/>
</svg>