<svg fill="none" height="18" viewBox="0 0 12 18" width="12" xmlns="http://www.w3.org/2000/svg">
	<path d="M9.08425 10.7926L11.0451 7.8513C11.2079 7.60027 11.2956 7.30794 11.2979 7.00875V4.20535C11.2958 3.83925 11.1626 3.48601 10.9225 3.2096L9.06893 1.09555C8.92623 0.93311 8.75076 0.802719 8.55406 0.712948C8.35735 0.623177 8.14387 0.576066 7.92765 0.574707H3.94468C3.72846 0.576066 3.51498 0.623177 3.31828 0.712948C3.12157 0.802719 2.9461 0.93311 2.8034 1.09555L0.94978 3.2096C0.709709 3.48601 0.576566 3.83925 0.574463 4.20535V7.00875C0.576723 7.30794 0.664421 7.60027 0.82723 7.8513L2.78808 10.7926C3.34113 11.623 3.63688 12.5982 3.63829 13.596H8.23404C8.23545 12.5982 8.5312 11.623 9.08425 10.7926V10.7926Z" stroke="#2D2F30" stroke-linecap="round" stroke-linejoin="round"/>
	<path d="M0.95752 7.46826H10.915" stroke="#2D2F30" stroke-linecap="round" stroke-linejoin="round"/>
	<path d="M3.63818 13.5957H8.23393V15.1276C8.23393 15.7371 7.99183 16.3215 7.5609 16.7525C7.12996 17.1834 6.54549 17.4255 5.93606 17.4255C5.32662 17.4255 4.74215 17.1834 4.31121 16.7525C3.88028 16.3215 3.63818 15.7371 3.63818 15.1276V13.5957Z" stroke="#2D2F30" stroke-linecap="round" stroke-linejoin="round"/>
</svg>