<svg fill="none" height="22" viewBox="0 0 20 22" width="20" xmlns="http://www.w3.org/2000/svg">
	<path d="M10 7.80257C14.8325 7.80257 18.75 6.46591 18.75 4.81706C18.75 3.16821 14.8325 1.45435 10 1.45435C5.16751 1.45435 1.25 3.16821 1.25 4.81706C1.25 6.46591 5.16751 7.80257 10 7.80257Z" stroke="#2D2F30" stroke-miterlimit="10"/>
	<path d="M18.3996 5.64722L11.5629 14.6383H8.42461L1.59961 5.64722" stroke="#2D2F30" stroke-miterlimit="10"/>
	<path d="M11.5631 14.6384V16.9323L9.9998 17.6355L8.4248 16.9323V14.6384" stroke="#2D2F30" stroke-miterlimit="10"/>
	<path d="M5.33337 20.4825L10 19.2837V17.6353L8.42504 16.9207L4.54004 17.9235" stroke="#2D2F30" stroke-miterlimit="10"/>
	<path d="M5.12732 20.5495C5.71964 20.3969 6.04566 19.689 5.85551 18.9682C5.66535 18.2474 5.03103 17.7868 4.43871 17.9394C3.84638 18.0919 3.52036 18.7999 3.71052 19.5206C3.90067 20.2414 4.53499 20.702 5.12732 20.5495Z" stroke="#2D2F30" stroke-miterlimit="10"/>
	<path d="M14.6667 20.4825L10 19.2837V17.6353L11.5633 16.9207L15.46 17.9235" stroke="#2D2F30" stroke-miterlimit="10"/>
	<path d="M16.2793 19.5242C16.4695 18.8035 16.1435 18.0955 15.5511 17.943C14.9588 17.7904 14.3245 18.251 14.1343 18.9718C13.9442 19.6926 14.2702 20.4005 14.8625 20.5531C15.4549 20.7056 16.0892 20.245 16.2793 19.5242Z" stroke="#2D2F30" stroke-miterlimit="10"/>
	<path d="M11.5635 16.2288L14.7018 15.4219L14.8885 15.3643C15.4601 15.2144 16.0668 15.664 16.2535 16.3556C16.4401 17.0472 16.1251 17.7273 15.5535 17.8772L15.3668 17.9233" stroke="#2D2F30" stroke-miterlimit="10"/>
	<path d="M8.42543 16.2288L5.2871 15.4219L5.10043 15.3643C4.52876 15.2144 3.9221 15.664 3.73543 16.3556C3.54876 17.0472 3.86376 17.7273 4.43543 17.8772L4.6221 17.9233" stroke="#2D2F30" stroke-miterlimit="10"/>
	<path d="M17.0036 4.90791C17.0037 4.90791 17.0035 4.90853 17.0029 4.90978C17.0033 4.90854 17.0036 4.90791 17.0036 4.90791ZM16.9541 4.8682C16.9744 4.89408 16.9861 4.91326 16.9928 4.92604C16.9882 4.93242 16.9819 4.94052 16.9732 4.95038C16.9253 5.00443 16.8319 5.08046 16.6707 5.16861C16.3488 5.34465 15.8499 5.51907 15.1906 5.67154C13.8801 5.97464 12.0447 6.16675 10 6.16675C7.95527 6.16675 6.11985 5.97464 4.80937 5.67154C4.15012 5.51907 3.65121 5.34465 3.32927 5.16861C3.16807 5.08046 3.07466 5.00443 3.02685 4.95038C3.01812 4.94052 3.01177 4.93242 3.0072 4.92604C3.01386 4.91326 3.02558 4.89408 3.04586 4.8682C3.10318 4.79509 3.20599 4.699 3.36995 4.58784C3.69723 4.36598 4.19906 4.13029 4.85298 3.91512C6.15548 3.48654 7.9773 3.16675 10 3.16675C12.0227 3.16675 13.8445 3.48654 15.147 3.91512C15.8009 4.13029 16.3028 4.36598 16.63 4.58784C16.794 4.699 16.8968 4.79509 16.9541 4.8682ZM2.99712 4.90978C2.99653 4.90853 2.99633 4.90791 2.99637 4.90791C2.99642 4.90792 2.99672 4.90854 2.99712 4.90978Z" stroke="#2D2F30"/>
</svg>