<svg width="20" height="21" viewBox="0 0 20 21" fill="none" xmlns="http://www.w3.org/2000/svg">
	<path fill-rule="evenodd" clip-rule="evenodd" d="M4.97148 2.42964C4.9375 2.41184 4.9085 2.39516 4.8839 2.37985C4.9085 2.36454 4.9375 2.34786 4.97148 2.33006C5.20416 2.2082 5.57366 2.08339 6.07228 1.97293C7.06139 1.75383 8.45201 1.61401 10.0048 1.61401C11.5576 1.61401 12.9482 1.75383 13.9373 1.97293C14.4359 2.08339 14.8055 2.2082 15.0381 2.33006C15.0721 2.34786 15.1011 2.36454 15.1257 2.37985C15.1011 2.39516 15.0721 2.41184 15.0381 2.42964C14.8055 2.5515 14.4359 2.67631 13.9373 2.78677C12.9482 3.00587 11.5576 3.14569 10.0048 3.14569C8.45201 3.14569 7.06139 3.00587 6.07228 2.78677C5.57366 2.67631 5.20416 2.5515 4.97148 2.42964ZM10.0048 0.614014C8.40165 0.614014 6.93508 0.757567 5.856 0.996603C5.32053 1.11522 4.85318 1.26317 4.50753 1.4442C4.33524 1.53443 4.16861 1.64545 4.03926 1.78547C3.93312 1.90037 3.83655 2.05298 3.80299 2.23912L2.89112 4.11543L2.84082 4.21892V4.33399C2.84082 4.59932 2.96433 4.81428 3.10867 4.97072C3.25058 5.12452 3.43579 5.24887 3.63206 5.35182C4.02567 5.55827 4.56243 5.72916 5.18378 5.86706C6.14307 6.07997 7.36896 6.22814 8.73011 6.28564V12.7471C8.13875 12.8127 7.60887 12.9225 7.19194 13.0692C6.93082 13.1611 6.68552 13.2773 6.49573 13.4272C6.31214 13.5722 6.10618 13.8108 6.10618 14.1462C6.10618 14.1688 6.1071 14.191 6.10889 14.2127L6.09419 14.2148L6.88554 19.9493L6.9311 20.2794L7.25336 20.3644C9.04457 20.8367 10.9567 20.8367 12.7479 20.3644L13.0701 20.2794L13.1157 19.9493L13.8835 14.3856C13.9067 14.3121 13.9201 14.2323 13.9201 14.1462C13.9201 13.8094 13.712 13.5706 13.5284 13.4264C13.3381 13.2769 13.0923 13.1609 12.8309 13.0691C12.4099 12.9213 11.8747 12.8109 11.2795 12.7455V6.28564C12.6406 6.22814 13.8665 6.07997 14.8258 5.86706C15.4472 5.72916 15.9839 5.55827 16.3775 5.35182C16.5738 5.24887 16.759 5.12452 16.9009 4.97072C17.0453 4.81428 17.1688 4.59932 17.1688 4.33399V4.21892L17.1185 4.11543L16.2066 2.23919C16.1731 2.05301 16.0765 1.90038 15.9703 1.78547C15.841 1.64545 15.6744 1.53443 15.5021 1.4442C15.1564 1.26317 14.6891 1.11522 14.1536 0.996603C13.0745 0.757567 11.608 0.614014 10.0048 0.614014ZM15.5934 3.26525C15.5633 3.28269 15.5328 3.29943 15.5021 3.3155C15.1564 3.49653 14.6891 3.64448 14.1536 3.7631C13.0745 4.00214 11.608 4.14569 10.0048 4.14569C8.40165 4.14569 6.93508 4.00214 5.856 3.7631C5.32053 3.64448 4.85318 3.49653 4.50753 3.3155C4.47683 3.29942 4.44631 3.28268 4.41614 3.26524L3.89437 4.33887C3.93801 4.37381 4.00314 4.41724 4.09655 4.46624C4.37715 4.61342 4.81604 4.76111 5.40045 4.89082C6.55068 5.1461 8.15974 5.30925 9.95563 5.31217H10.054C11.8498 5.30925 13.4589 5.1461 14.6091 4.89082C15.1936 4.76111 15.6324 4.61342 15.913 4.46624C16.0065 4.41724 16.0716 4.37381 16.1152 4.33887L15.5934 3.26525ZM10.0048 6.31221L9.95483 6.31217H9.73011V14.6112C9.82318 14.6135 9.91758 14.6147 10.0131 14.6147C10.103 14.6147 10.1918 14.6136 10.2795 14.6116V6.31217H10.0548L10.0048 6.31221ZM8.73011 13.7539V14.5402C8.35216 14.4941 8.01675 14.4287 7.7404 14.3502C7.50431 14.2831 7.33092 14.2118 7.21555 14.1468C7.28927 14.1055 7.39064 14.0594 7.52397 14.0125C7.8289 13.9052 8.24149 13.8141 8.73011 13.7539ZM12.2859 14.3502C12.0055 14.4299 11.6642 14.496 11.2795 14.5422V13.7522C11.7726 13.8123 12.1906 13.9041 12.4995 14.0126C12.6334 14.0596 12.7354 14.1059 12.8098 14.1473C12.6944 14.2122 12.5213 14.2832 12.2859 14.3502ZM12.7544 15.2523C12.6907 15.2733 12.6255 15.2932 12.5593 15.3121C11.887 15.5032 10.9871 15.6147 10.0131 15.6147C9.03919 15.6147 8.13927 15.5032 7.46698 15.3121C7.39163 15.2906 7.31768 15.2678 7.24563 15.2435L7.82974 19.4763C9.25245 19.7994 10.7488 19.7994 12.1715 19.4763L12.7544 15.2523ZM12.942 14.0537C12.9441 14.0503 12.9456 14.0487 12.9458 14.0487C12.946 14.0488 12.9449 14.0504 12.942 14.0537ZM7.0843 14.0537C7.08134 14.0504 7.08027 14.0488 7.08047 14.0487C7.08067 14.0487 7.08214 14.0503 7.0843 14.0537Z" fill="#2D2F30"/>
</svg>