<svg xmlns="http://www.w3.org/2000/svg" width="20" height="20" viewBox="0 0 20 20" fill="none">
	<path d="M10 15.2857C14.9705 15.2857 19 12.9832 19 10.1429C19 7.30255 14.9705 5 10 5C5.02943 5 1 7.30255 1 10.1429C1 12.9832 5.02943 15.2857 10 15.2857Z" stroke="#2D2F30" stroke-linecap="round" stroke-linejoin="round"/>
	<path d="M16.107 9.5C15.9945 10.4432 13.0775 11.75 10.0079 11.75C6.93824 11.75 4.00522 10.4432 3.89272 9.5C3.68006 9.59299 3.92885 9.7136 3.79974 9.8534C3.67064 9.9932 3.59266 10.1488 3.57129 10.3092C3.57129 11.302 6.44003 12.6287 9.99986 12.6287C13.5597 12.6287 16.4284 11.2821 16.4284 10.3092C16.408 10.1492 16.3313 9.99386 16.2036 9.85409C16.0759 9.71432 16.3182 9.59349 16.107 9.5Z" fill="#2D2F30"/>
	<path d="M9.99983 12.5432C13.5503 12.5432 16.4284 11.392 16.4284 9.97182C16.4284 8.55163 13.5503 7.40039 9.99983 7.40039C6.44947 7.40039 3.57129 8.55163 3.57129 9.97182C3.57129 11.392 6.44947 12.5432 9.99983 12.5432Z" stroke="#2D2F30" stroke-linecap="round" stroke-linejoin="round"/>
</svg>