<?xml version="1.0" encoding="UTF-8"?>
<svg width="25px" height="25px" viewBox="0 0 25 25" version="1.1" xmlns="http://www.w3.org/2000/svg" xmlns:xlink="http://www.w3.org/1999/xlink">
    <title>Elements</title>
    <g id="Page-1" stroke="none" stroke-width="1" fill="none" fill-rule="evenodd">
        <g id="Artboard" transform="translate(-63.000000, -182.000000)">
            <g id="elements-icon" transform="translate(63.834460, 182.800000)">
                <g id="Group-15" transform="translate(1.250000, 2.570907)" stroke="#2D2F30" stroke-linecap="round" stroke-linejoin="round">
                    <path d="M5.01673605,0.318808937 L0.0856341857,8.86081896 C-0.0285447286,9.05706397 -0.0285447286,9.30058619 0.0856341857,9.49772322 L5.01673605,18.0388412 C5.13002294,18.2359783 5.34054031,18.3581854 5.56889814,18.3581854 L15.4311019,18.3581854 C15.6594597,18.3581854 15.8699771,18.2359783 15.983264,18.0388412 L20.9143658,9.49772322 C21.0285447,9.30058619 21.0285447,9.05706397 20.9143658,8.86081896 L15.983264,0.318808937 C15.8699771,0.121671906 15.6594597,0.000356809107 15.4311019,0.000356809107 L5.56889814,0.000356809107 C5.34054031,0.000356809107 5.13002294,0.121671906 5.01673605,0.318808937 Z" id="Stroke-1"></path>
                    <path d="M10.8736683,0 C11.6381318,0.426386883 12.3597783,0.95714043 12.9984666,1.55301164 C13.7299252,2.23451703 14.2820873,3.10780732 14.5550463,4.07029989 C15.0420907,5.79279585 14.4756563,7.62322657 14.6897417,9.38140345 C14.9573486,11.5713193 16.2391853,13.2652706 18.420181,13.8174327" id="Stroke-3" stroke-width="0.5"></path>
                    <path d="M6.18011214,0 C7.5734517,0.697561804 8.93913856,1.54855152 10.0309744,2.67160819 C10.8444992,3.50832555 11.4225299,4.54396398 11.6000425,5.70537762 C11.777555,6.86589924 11.50192,8.00501232 11.4403704,9.16107383 C11.3511681,10.8594852 11.4430465,12.6836717 12.1887775,14.2589839 C12.9853538,15.9422309 14.5142809,17.0527993 16.3010025,17.5050548" id="Stroke-5" stroke-width="0.5"></path>
                    <path d="M20.0992354,10.9097953 C19.1260386,10.6484326 18.2723728,10.0454252 17.9244839,9.06866027 C17.4044346,7.61287911 18.1465976,6.11071277 18.4204486,4.68615241" id="Stroke-7" stroke-width="0.5"></path>
                    <path d="M2.57937304,13.8176111 C4.5097103,13.1521621 7.06178744,12.9425367 8.59695863,14.5526378 C9.53447456,15.5356469 10.1588905,17.6684734 11.5379577,18.2304477" id="Stroke-9" stroke-width="0.5"></path>
                    <path d="M4.21659162,2.11025826 C5.18176026,2.61068303 6.07021494,3.31538102 6.79721349,4.11998556 C7.66069153,5.07623396 8.26815903,6.27065245 8.51078923,7.53643276 C8.69900603,8.51854983 8.85243395,10.4390748 7.9613032,11.1482329 C7.34848356,11.6361694 6.56082746,11.266872 5.93819557,11.0188896 C4.23354006,10.3409523 2.52977657,10.4328307 0.746623057,10.6469161" id="Stroke-11" stroke-width="0.5"></path>
                    <path d="M2.57972984,4.6935562 C3.4672925,4.82468354 4.42086484,4.98792371 5.05152493,5.62571999 C5.87753802,6.4606533 6.05237448,9.32672245 4.23264803,8.59793985 C3.08907484,8.1412242 1.96869425,8.19652961 0.747515079,8.32676493" id="Stroke-13" stroke-width="0.5"></path>
                </g>
            </g>
        </g>
    </g>
</svg>