<?xml version="1.0" encoding="UTF-8"?>
<svg width="24px" height="25px" viewBox="0 0 24 25" version="1.1" xmlns="http://www.w3.org/2000/svg" xmlns:xlink="http://www.w3.org/1999/xlink">
    <title>Essentials</title>
    <g id="Page-1" stroke="none" stroke-width="1" fill="none" fill-rule="evenodd">
        <g id="Artboard" transform="translate(-130.000000, -143.000000)">
            <g id="essentials-icon" transform="translate(130.444555, 143.800000)">
                <rect id="Rectangle" fill="#FFFFFF" opacity="0.0106740552" x="0" y="0" width="23.5" height="23.5"></rect>
                <g id="Essentials-(4)" transform="translate(1.954504, 1.500000)" fill-rule="nonzero" stroke="#2D2F30" stroke-linecap="round" stroke-linejoin="round">
                    <g id="Group">
                        <path d="M5.58080655,17.3640522 C5.58080655,16.0881577 9.95517868,15.9787352 12.7043931,15.4362275 C12.7378323,15.4296289 10.616505,12.0416355 10.577857,12.0468144 C8.14293542,12.3738933 5.58080655,12.6669249 5.58080655,13.6429358 L5.58080655,17.3640522 Z" id="Path"></path>
                        <path d="M2.86361417,6.17758919 C2.8944978,6.18129742 2.9844873,6.20933511 3.01427074,6.20400213 C7.36366147,5.42520557 14.8835975,5.04275029 14.8835975,3.72024818 L14.8835975,0 C14.8835975,1.86055819 0,1.86055819 0,3.72111638 C0,4.34134315 0,4.80651323 0,5.11662661 C0,5.14131954 0,5.1273259 0,5.15319796 C0,5.34503114 1.62785269,6.02920991 2.86361417,6.17758919 Z" id="Path"></path>
                        <path d="M10.5686305,10.9498042 C10.5622477,10.9527897 10.5488994,10.9527897 10.5285856,10.9498042 C6.13617111,10.3042453 1.81889148e-07,9.87666877 1.81889148e-07,8.68202609 L1.81889148e-07,4.96090971 C1.81889148e-07,6.27665077 7.4432442,6.66193207 11.8023734,7.4327502 C11.8248131,7.43671816 11.8386508,7.43958962 11.8438866,7.44136456 C10.9982601,8.39298245 10.5425429,9.62846166 10.5676722,10.9012654 L10.5686305,10.9498042 L10.5686305,10.9498042 Z" id="Path"></path>
                    </g>
                    <g id="Group" transform="translate(10.567762, 6.322251)">
                        <path d="M7.16006692,8.59433762 L8.80878367,6.12169659 C8.94856429,5.91245977 9.02322971,5.66589023 9.02322971,5.41411147 L9.02322971,3.05780959 C9.02322971,2.74872946 8.91123158,2.45006776 8.70720396,2.21738946 L7.14878028,0.43583771 C6.90655175,0.158881077 6.5566661,0 6.1885482,0 L2.83554972,0 C2.46743181,0 2.11754616,0.158881077 1.87531764,0.43583771 L0.316893952,2.21738946 C0.113734542,2.45006776 0.00086820261,2.74872946 0.00086820261,3.05780959 L0.00086820261,5.41411147 C0.00086820261,5.66589023 0.075533627,5.91245977 0.215314247,6.12169659 L1.864031,8.59433762 C2.3302558,9.29324073 2.57856175,10.1154286 2.57856175,10.9558487 L2.57856175,10.9558487 L6.44553617,10.9558487 L6.44553617,10.9558487 C6.44466797,10.1154286 6.69384211,9.29324073 7.16006692,8.59433762 Z" id="Path"></path>
                        <line x1="0" y1="5.80046163" x2="8.70025834" y2="5.80046163" id="Path" fill="#FFFFFF"></line>
                        <path d="M4.51118076,14.1777486 L4.51118076,14.1777486 C3.44329155,14.1777486 2.57769355,13.3121506 2.57769355,12.2442614 L2.57769355,10.9549805 L6.44466797,10.9549805 L6.44466797,12.2442614 C6.44466797,13.3121506 5.57906996,14.1777486 4.51118076,14.1777486 Z" id="Path"></path>
                    </g>
                </g>
            </g>
        </g>
    </g>
</svg>
