<svg fill="none" height="18" viewBox="0 0 18 18" width="18" xmlns="http://www.w3.org/2000/svg">
	<path d="M8.85322 4.32034C13.3237 4.32034 16.9477 3.52306 16.9477 2.53956C16.9477 1.55607 13.3237 0.758789 8.85322 0.758789C4.38279 0.758789 0.758789 1.55607 0.758789 2.53956C0.758789 3.52306 4.38279 4.32034 8.85322 4.32034Z" stroke="#2D2F30" stroke-linecap="round" stroke-linejoin="round"/>
	<path d="M16.9477 2.53955L15.7031 7.47716C15.6696 7.64767 15.589 7.8054 15.4704 7.93247L13.1028 10.6239C12.907 10.8406 12.6426 10.9834 12.3541 11.0286L9.09606 11.5851C8.93559 11.6155 8.77085 11.6155 8.61039 11.5851L5.35238 11.0286C5.06381 10.9834 4.79949 10.8406 4.60365 10.6239L2.23602 7.93247C2.11747 7.8054 2.03686 7.64767 2.00331 7.47716L0.758789 2.53955" stroke="#2D2F30" stroke-linecap="round" stroke-linejoin="round"/>
	<path d="M6.78931 15.7134V17.2412" stroke="#2D2F30" stroke-linecap="round" stroke-linejoin="round"/>
	<path d="M10.9175 15.7134V17.2412" stroke="#2D2F30" stroke-linecap="round" stroke-linejoin="round"/>
	<path d="M8.85327 4.32031V11.5851" stroke="#2D2F30" stroke-linecap="round" stroke-linejoin="round"/>
	<path d="M12.2833 11.0288V14.4588C12.2999 14.7766 12.19 15.088 11.9776 15.325C11.7653 15.562 11.4678 15.7053 11.1501 15.7236H6.55649C6.23881 15.7053 5.94128 15.562 5.72894 15.325C5.51659 15.088 5.4067 14.7766 5.42327 14.4588V11.0288" stroke="#2D2F30" stroke-linecap="round" stroke-linejoin="round"/>
</svg>