<?xml version="1.0" encoding="UTF-8"?>
<svg width="50px" height="48px" viewBox="0 0 50 48" version="1.1" xmlns="http://www.w3.org/2000/svg" xmlns:xlink="http://www.w3.org/1999/xlink">
    <title>Lines</title>
    <g id="Page-1" stroke="none" stroke-width="1" fill="none" fill-rule="evenodd" stroke-linecap="round" stroke-linejoin="round">
        <g id="integrations-lines-icon" transform="translate(1.000000, 0.719577)" stroke="#2D2F30">
            <polygon id="Path" stroke-width="1.5" points="35.978836 11.4285714 30.9206349 11.4497354 28.4021164 7.04761905 30.962963 2.62433862 36.021164 2.58201058 38.5396825 6.98412698"></polygon>
            <polygon id="Rectangle" stroke-width="1.5" transform="translate(19.206963, 31.765291) rotate(-149.999272) translate(-19.206963, -31.765291) " points="7.28129941 29.2256643 31.1326265 29.2256643 31.1326265 34.3049177 7.28129941 34.3049177"></polygon>
            <polygon id="Path" stroke-width="1.5" points="35.7883598 44.3386243 30.7301587 44.3597884 28.2116402 39.957672 30.7724868 35.5132275 35.8306878 35.4920635 38.3492063 39.8941799"></polygon>
            <polygon id="Path" stroke-width="1.5" points="35.8306878 35.5132275 35.957672 11.4285714 30.9206349 11.4497354 30.7936508 35.5343915"></polygon>
            <polygon id="Path" stroke-width="1.5" points="2.4973545 28.0846561 0 23.6825397 2.56084656 19.2592593 7.61904762 19.2169312 10.1375661 23.6190476 7.57671958 28.0634921"></polygon>
            <polygon id="Path" stroke-width="1.5" points="30.9206349 11.4497354 10.1375661 23.5978836 7.64021164 19.2169312 28.4232804 7.06878307"></polygon>
        </g>
    </g>
</svg>