<svg width="15" height="16" viewBox="0 0 15 16" fill="none" xmlns="http://www.w3.org/2000/svg">
	<title>Nanoleaf</title>
	<path d="M12.5384 15.6885C11.7026 16.1091 11.7026 13.6025 11.1008 14.0568C8.4094 15.84 8.17537 15.3857 7.08878 15.0156C5.63442 14.5783 2.14061 13.1483 1.03731 10.8941C-0.0492845 8.06791 0.836705 3.81179 0.987156 3.15571C1.42179 1.33887 2.50838 1.00242 3.36094 0.817372C6.50369 0.346339 11.2847 2.04542 12.2543 2.90337C13.4913 3.94637 14.9457 10.053 14.3773 11.853C14.1934 12.425 12.3044 12.9465 12.1038 13.367C11.7193 13.8885 13.4412 15.3016 12.5384 15.6885ZM5.43382 6.52023C5.85174 7.19314 6.67086 7.4623 7.23923 7.10902C7.8076 6.75575 7.92462 5.93144 7.5067 5.24171C7.08878 4.55199 6.26966 4.29965 5.70129 4.65292C5.13292 5.0062 5.0159 5.83051 5.43382 6.52023ZM5.63442 10.995C6.05234 11.6679 6.85474 11.9371 7.43983 11.5838C8.02492 11.2306 8.12522 10.4063 7.7073 9.73335C7.28938 9.06044 6.48698 8.79128 5.90189 9.14456C5.3168 9.49783 5.2165 10.3221 5.63442 10.995ZM9.39569 8.69035C9.81361 9.36325 10.616 9.63241 11.2011 9.27914C11.7695 8.92586 11.8865 8.10156 11.4686 7.42865C11.0507 6.75575 10.2315 6.48659 9.66316 6.83986C9.09479 7.19314 8.97778 8.01744 9.39569 8.69035Z" fill="#58B947"/>
</svg>
