<svg xmlns="http://www.w3.org/2000/svg" xmlns:xlink="http://www.w3.org/1999/xlink" version="1.1" width="1000" height="1000" viewBox="0 0 1000 1000" xml:space="preserve">
	<title>NanoleafAPI</title>
	<rect x="0" y="0" width="100%" height="100%" fill="#ffffff"/>
	<g transform="matrix(65.8245 0 0 65.8245 496.9269 496.7074)" id="162025">
		<path style="stroke: none; stroke-width: 1; stroke-dasharray: none; stroke-linecap: butt; stroke-dashoffset: 0; stroke-linejoin: miter; stroke-miterlimit: 4; is-custom-font: none; font-file-url: none; fill: rgb(88,185,71); fill-rule: nonzero; opacity: 1;" vector-effect="non-scaling-stroke" transform=" translate(-7.5042, -8.2363)" d="M 12.5384 15.6885 C 11.7026 16.1091 11.7026 13.6025 11.1008 14.0568 C 8.4094 15.84 8.17537 15.3857 7.08878 15.0156 C 5.63442 14.5783 2.14061 13.1483 1.03731 10.8941 C -0.0492845 8.06791 0.836705 3.81179 0.987156 3.15571 C 1.42179 1.33887 2.50838 1.00242 3.36094 0.817372 C 6.50369 0.346339 11.2847 2.04542 12.2543 2.90337 C 13.4913 3.94637 14.9457 10.053 14.3773 11.853 C 14.1934 12.425 12.3044 12.9465 12.1038 13.367 C 11.7193 13.8885 13.4412 15.3016 12.5384 15.6885 Z M 5.43382 6.52023 C 5.85174 7.19314 6.67086 7.4623 7.23923 7.10902 C 7.8076 6.75575 7.92462 5.93144 7.5067 5.24171 C 7.08878 4.55199 6.26966 4.29965 5.70129 4.65292 C 5.13292 5.0062 5.0159 5.83051 5.43382 6.52023 Z M 5.63442 10.995 C 6.05234 11.6679 6.85474 11.9371 7.43983 11.5838 C 8.02492 11.2306 8.12522 10.4063 7.7073 9.73335 C 7.28938 9.06044 6.48698 8.79128 5.90189 9.14456 C 5.3168 9.49783 5.2165 10.3221 5.63442 10.995 Z M 9.39569 8.69035 C 9.81361 9.36325 10.616 9.63241 11.2011 9.27914 C 11.7695 8.92586 11.8865 8.10156 11.4686 7.42865 C 11.0507 6.75575 10.2315 6.48659 9.66316 6.83986 C 9.09479 7.19314 8.97778 8.01744 9.39569 8.69035 Z" stroke-linecap="round"/>
	</g>
	<g transform="matrix(1 0 0 1 500 532.14)" style="" id="633171">		
</g>
	<g transform="matrix(0.5057 0 0 0.5057 189.5527 788.6245)" id="751771">
		<g style="" vector-effect="non-scaling-stroke">
			<g transform="matrix(2.7778 0 0 2.7778 -0.5777 -1.0348)">
				<path style="stroke: none; stroke-width: 1; stroke-dasharray: none; stroke-linecap: butt; stroke-dashoffset: 0; stroke-linejoin: miter; stroke-miterlimit: 4; is-custom-font: none; font-file-url: none; fill: rgb(161,121,220); fill-rule: nonzero; opacity: 1;" transform=" translate(-127.791, -143.6263)" d="M 255.569 84.452376 C 255.567 79.622376 254.534 75.354376 252.445 71.691376 C 250.393 68.089376 247.32 65.070376 243.198 62.683376 C 209.173 43.064376 175.115 23.505376 141.101 3.86637605 C 131.931 -1.42762395 123.04 -1.23462395 113.938 4.13537605 C 100.395 12.122376 32.59 50.969376 12.385 62.672376 C 4.064 67.489376 0.015 74.861376 0.013 84.443376 C 0 123.898376 0.013 163.352376 0 202.808376 C 0 207.532376 0.991 211.717376 2.988 215.325376 C 5.041 219.036376 8.157 222.138376 12.374 224.579376 C 32.58 236.282376 100.394 275.126376 113.934 283.115376 C 123.04 288.488376 131.931 288.680376 141.104 283.384376 C 175.119 263.744376 209.179 244.186376 243.209 224.567376 C 247.426 222.127376 250.542 219.023376 252.595 215.315376 C 254.589 211.707376 255.582 207.522376 255.582 202.797376 C 255.582 202.797376 255.582 123.908376 255.569 84.452376" stroke-linecap="round"/>
			</g>
			<g transform="matrix(2.7778 0 0 2.7778 -0.5763 197.9099)">
				<path style="stroke: none; stroke-width: 1; stroke-dasharray: none; stroke-linecap: butt; stroke-dashoffset: 0; stroke-linejoin: miter; stroke-miterlimit: 4; is-custom-font: none; font-file-url: none; fill: rgb(40,0,104); fill-rule: nonzero; opacity: 1;" transform=" translate(-127.7915, -215.247)" d="M 128.182 143.241376 L 2.988 215.325376 C 5.041 219.036376 8.157 222.138376 12.374 224.579376 C 32.58 236.282376 100.394 275.126376 113.934 283.115376 C 123.04 288.488376 131.931 288.680376 141.104 283.384376 C 175.119 263.744376 209.179 244.186376 243.209 224.567376 C 247.426 222.127376 250.542 219.023376 252.595 215.315376 L 128.182 143.241376" stroke-linecap="round"/>
			</g>
			<g transform="matrix(2.7778 0 0 2.7778 177.4515 -1.3779)">
				<path style="stroke: none; stroke-width: 1; stroke-dasharray: none; stroke-linecap: butt; stroke-dashoffset: 0; stroke-linejoin: miter; stroke-miterlimit: 4; is-custom-font: none; font-file-url: none; fill: rgb(57,0,145); fill-rule: nonzero; opacity: 1;" transform=" translate(-191.882, -143.5034)" d="M 255.569 84.452376 C 255.567 79.622376 254.534 75.354376 252.445 71.691376 L 128.182 143.241376 L 252.595 215.315376 C 254.589 211.707376 255.58 207.522376 255.582 202.797376 C 255.582 202.797376 255.582 123.908376 255.569 84.452376" stroke-linecap="round"/>
			</g>
			<g transform="matrix(2.7778 0 0 2.7778 223.9705 -2.1067)">
				<path style="stroke: none; stroke-width: 1; stroke-dasharray: none; stroke-linecap: butt; stroke-dashoffset: 0; stroke-linejoin: miter; stroke-miterlimit: 4; is-custom-font: none; font-file-url: none; fill: rgb(255,255,255); fill-rule: nonzero; opacity: 1;" transform=" translate(-208.6292, -143.2414)" d="M 201.892326 116.294008 L 201.892326 129.767692 L 215.36601 129.767692 L 215.36601 116.294008 L 222.102852 116.294008 L 222.102852 129.767692 L 235.576537 129.767692 L 235.576537 136.504534 L 222.102852 136.504534 L 222.102852 149.978218 L 235.576537 149.978218 L 235.576537 156.71506 L 222.102852 156.71506 L 222.102852 170.188744 L 215.36601 170.188744 L 215.36601 156.71506 L 201.892326 156.71506 L 201.892326 170.188744 L 195.155484 170.188744 L 195.155484 156.71506 L 181.6818 156.71506 L 181.6818 149.978218 L 195.155484 149.978218 L 195.155484 136.504534 L 181.6818 136.504534 L 181.6818 129.767692 L 195.155484 129.767692 L 195.155484 116.294008 L 201.892326 116.294008 Z M 215.36601 136.504534 L 201.892326 136.504534 L 201.892326 149.978218 L 215.36601 149.978218 L 215.36601 136.504534 Z" stroke-linecap="round"/>
			</g>
			<g transform="matrix(2.7778 0 0 2.7778 -16.3538 -1.0371)">
				<path style="stroke: none; stroke-width: 1; stroke-dasharray: none; stroke-linecap: butt; stroke-dashoffset: 0; stroke-linejoin: miter; stroke-miterlimit: 4; is-custom-font: none; font-file-url: none; fill: rgb(255,255,255); fill-rule: nonzero; opacity: 1;" transform=" translate(-122.1119, -143.6259)" d="M 128.456752 48.625876 C 163.600523 48.625876 194.283885 67.7121741 210.718562 96.0819435 L 210.558192 95.808876 L 169.209615 119.617159 C 161.062959 105.823554 146.128136 96.5150717 128.996383 96.3233722 L 128.456752 96.3203544 C 102.331178 96.3203544 81.1506705 117.499743 81.1506705 143.625316 C 81.1506705 152.168931 83.4284453 160.17752 87.3896469 167.094792 C 95.543745 181.330045 110.872554 190.931398 128.456752 190.931398 C 146.149522 190.931398 161.565636 181.208041 169.67832 166.820563 L 169.481192 167.165876 L 210.767678 191.083913 C 194.51328 219.21347 164.25027 238.240861 129.514977 238.620102 L 128.456752 238.625876 C 93.2021701 238.625876 62.4315028 219.422052 46.0382398 190.902296 C 38.0352471 176.979327 33.4561922 160.837907 33.4561922 143.625316 C 33.4561922 91.1592636 75.9884604 48.625876 128.456752 48.625876 Z" stroke-linecap="round"/>
			</g>
		</g>
	</g>
</svg>